<?xml version="1.0" encoding="UTF-8" standalone="no"?>
<svg
   id="svg1928"
   version="1.1"
   viewBox="0 0 132.27051 132.2915"
   height="132.2915mm"
   width="132.27051mm"
   xmlns="http://www.w3.org/2000/svg"
   xmlns:svg="http://www.w3.org/2000/svg"
   xmlns:rdf="http://www.w3.org/1999/02/22-rdf-syntax-ns#"
   xmlns:cc="http://creativecommons.org/ns#"
   xmlns:dc="http://purl.org/dc/elements/1.1/">
  <defs
     id="defs1922" />
  <metadata
     id="metadata1925">
    <rdf:RDF>
      <cc:Work
         rdf:about="">
        <dc:format>image/svg+xml</dc:format>
        <dc:type
           rdf:resource="http://purl.org/dc/dcmitype/StillImage" />
      </cc:Work>
    </rdf:RDF>
  </metadata>
  <g
     id="layer1"
     transform="translate(2776.0391,-5585.1883)">
    <g
       id="g11510"
       transform="matrix(1.1846094,0,0,1.3579309,-1.2227013,-2232.1823)"
       style="stroke-width:0.788449">
      <path
         id="path11496"
         style="font-style:normal;font-variant:normal;font-weight:normal;font-stretch:normal;font-size:133.239px;line-height:125%;font-family:'CropBats AOE';-inkscape-font-specification:'CropBats AOE, Normal';font-variant-ligatures:normal;font-variant-caps:normal;font-variant-numeric:normal;font-variant-east-asian:normal;letter-spacing:0px;word-spacing:0px;fill:#000000;fill-opacity:1;stroke:none;stroke-width:3.17057px;stroke-linecap:butt;stroke-linejoin:miter;stroke-opacity:1"
         d="m -2306.38,5756.825 c -3.0364,0 -5.6217,0.8921 -7.7567,2.6763 -2.1349,1.7844 -3.2024,3.9255 -3.2024,6.4234 0,2.5376 1.0675,4.6986 3.2024,6.4828 2.135,1.7844 4.7203,2.6769 7.7567,2.6769 2.9888,0 5.5509,-0.8925 7.6858,-2.6769 2.135,-1.7842 3.2024,-3.9452 3.2024,-6.4828 0,-2.4979 -1.0674,-4.639 -3.2024,-6.4234 -2.1349,-1.7842 -4.697,-2.6763 -7.6858,-2.6763 z m -18.8583,22.1847 c -1.708,0 -3.1787,0.4955 -4.4121,1.4868 -1.1861,0.9913 -1.7793,2.2007 -1.7793,3.6282 0,1.4274 0.5932,2.6562 1.7793,3.6871 1.2334,0.9912 2.7041,1.4873 4.4121,1.4873 1.6604,0 3.0833,-0.4961 4.2694,-1.4873 1.2336,-1.0309 1.8506,-2.2597 1.8506,-3.6871 0,-1.4275 -0.617,-2.6369 -1.8506,-3.6282 -1.1861,-0.9913 -2.609,-1.4868 -4.2694,-1.4868 z m 29.9599,5.7692 c -8.3026,0 -15.4187,2.4779 -21.3491,7.4342 -5.883,4.9166 -8.8242,10.8446 -8.8242,17.7834 0,6.9785 2.9412,12.9459 8.8242,17.9022 5.8829,4.9167 12.9991,7.3748 21.3491,7.3748 8.35,0 15.4666,-2.4581 21.3496,-7.3748 5.8829,-4.9563 8.8242,-10.9237 8.8242,-17.9022 0,-6.9388 -2.9413,-12.8668 -8.8242,-17.7834 -5.883,-4.9563 -12.9996,-7.4342 -21.3496,-7.4342 z m 0,2.4381 c 7.5435,0 13.972,2.2405 19.2856,6.721 5.3137,4.4409 7.9706,9.7937 7.9706,16.0585 0,6.3044 -2.6569,11.6968 -7.9706,16.1773 -5.3136,4.4408 -11.7421,6.6611 -19.2856,6.6611 -7.5434,0 -13.9715,-2.2203 -19.2852,-6.6611 -5.3136,-4.4805 -7.9705,-9.8729 -7.9705,-16.1773 0,-6.2648 2.6569,-11.6176 7.9705,-16.0585 5.3137,-4.4805 11.7418,-6.721 19.2852,-6.721 z m 0,5.6503 c -5.6458,0 -10.4848,1.6853 -14.5174,5.0555 -3.9853,3.3306 -5.978,7.3553 -5.978,12.0737 0,4.7581 1.9927,8.8222 5.978,12.1925 4.0326,3.3306 8.8716,4.9961 14.5174,4.9961 5.6457,0 10.4614,-1.6655 14.4466,-4.9961 4.0327,-3.3703 6.0487,-7.4344 6.0487,-12.1925 0,-4.7184 -2.016,-8.7431 -6.0487,-12.0737 -3.9852,-3.3702 -8.8009,-5.0555 -14.4466,-5.0555 z m 36.7926,26.9426 c -1.708,0 -3.1791,0.5152 -4.4127,1.5461 -1.1861,0.9913 -1.7787,2.2008 -1.7787,3.6282 0,1.4274 0.5926,2.637 1.7787,3.6282 1.2336,0.9913 2.7047,1.4867 4.4127,1.4867 1.7079,0 3.1548,-0.4954 4.3408,-1.4867 1.1861,-0.9912 1.7792,-2.2008 1.7792,-3.6282 0,-1.4274 -0.5931,-2.6369 -1.7792,-3.6282 -1.186,-1.0309 -2.6329,-1.5461 -4.3408,-1.5461 z m 18.8582,5.412 c -2.4669,0 -4.578,0.7338 -6.3334,2.2009 -1.708,1.4274 -2.5622,3.172 -2.5622,5.2338 0,2.0618 0.8542,3.8261 2.5622,5.2932 1.7554,1.4274 3.8665,2.1415 6.3334,2.1415 2.467,0 4.5548,-0.7141 6.2627,-2.1415 1.7554,-1.4671 2.633,-3.2314 2.633,-5.2932 0,-2.0618 -0.8776,-3.8064 -2.633,-5.2338 -1.7079,-1.4671 -3.7957,-2.2009 -6.2627,-2.2009 z m -93.866,14.1552 c -2.4671,0 -4.5781,0.7339 -6.3336,2.201 -1.7078,1.4274 -2.562,3.1719 -2.562,5.2337 0,2.0618 0.8542,3.8262 2.562,5.2933 1.7555,1.4273 3.8665,2.1414 6.3336,2.1414 2.467,0 4.5546,-0.7141 6.2626,-2.1414 1.7554,-1.4671 2.6329,-3.2315 2.6329,-5.2933 0,-2.0618 -0.8775,-3.8063 -2.6329,-5.2337 -1.708,-1.4671 -3.7956,-2.201 -6.2626,-2.201 z" />
      <circle
         style="fill:none;fill-opacity:1;stroke:#000000;stroke-width:2.36535;stroke-linecap:round;stroke-linejoin:round;stroke-miterlimit:4;stroke-dasharray:none;stroke-opacity:1"
         id="circle11498"
         cx="-2244.0903"
         cy="5789.5518"
         r="11.879816" />
      <circle
         style="fill:#000000;fill-opacity:1;stroke:none;stroke-width:0;stroke-linecap:round;stroke-linejoin:round;stroke-miterlimit:4;stroke-dasharray:none;stroke-opacity:1"
         id="circle11500"
         cx="-2244.0903"
         cy="5789.5518"
         r="7.8998671" />
    </g>
  </g>
</svg>
